<svg viewBox="0 0 64 64" xmlns="http://www.w3.org/2000/svg" data-name="Layer 1" stroke="#707070" stroke-width="2" fill="#707070">
  <path d="M49.864 39.697c-.192-5.305-2.987-10.139-4.498-12.375a8.1 8.1 0 0 0-.412-2.754C39.975 9.6 25.439 6.843 19.423 6.353a4.94 4.94 0 0 0-4.335 1.938c-.976 1.276-1.23 2.849-.7 4.309.451 1.268 1.369 2.459 2.731 3.542 2.157 1.705 3.395 4.155 3.395 6.722v7.423c0 .915-.248 1.804-.717 2.571l-3.478 5.689c-.152.244-.282.5-.401.761C7.07 41.096 2 44.159 2 47.749c0 6.437 15.457 9.91 30 9.91s30-3.474 30-9.91c0-3.361-4.308-6.207-12.136-8.053zm-28.361-5.796a6.9 6.9 0 0 0 1.011-3.614v-7.423c0-3.182-1.514-6.205-4.152-8.29-1.063-.844-1.766-1.733-2.091-2.649-.295-.813-.146-1.695.407-2.418a2.99 2.99 0 0 1 2.583-1.16c5.622.458 19.194 3.017 23.797 16.854.243.729.347 1.54.299 2.343a6 6 0 0 1-.81 2.542l-1.226 2.075a1 1 0 0 0 1.722 1.017l1.226-2.075q.28-.474.492-.983c1.637 2.822 3.631 7.347 3.004 11.881-.321 2.297-1.914 4.208-4.155 4.987-3.915 1.353-12.079 3.139-22.779-.108-2.109-.645-3.526-2.544-3.526-4.727 0-.917.247-1.799.717-2.557zM32.001 55.66c-16.501 0-28-4.169-28-7.91 0-1.93 3.527-4.555 11.351-6.282-.022.227-.047.454-.047.685 0 3.068 1.986 5.736 4.943 6.64 4.669 1.417 8.886 1.919 12.519 1.919 5.116 0 9.074-.996 11.498-1.834 2.955-1.028 5.054-3.557 5.48-6.602.025-.181.034-.361.052-.542C56.033 43.267 60 45.583 60 47.749c0 3.741-11.499 7.91-28 7.91z"/>
  <path d="m9.52 30.934 1.525 2.79a1 1 0 0 0 1.754 0l1.526-2.79 2.79-1.526a.999.999 0 0 0 0-1.754l-2.79-1.525-1.526-2.79c-.351-.642-1.404-.641-1.755 0l-1.525 2.79-2.79 1.525a1 1 0 0 0 0 1.754zm1.217-3.192c.167-.092.306-.23.397-.397l.789-1.443.789 1.443c.092.167.23.306.397.397l1.443.789-1.443.789c-.167.092-.306.23-.397.397l-.789 1.443-.789-1.442a1 1 0 0 0-.397-.398l-1.443-.789zm35.74-13.339 1.526 2.79a.999.999 0 0 0 1.754 0l1.526-2.79 2.79-1.526a.999.999 0 0 0 0-1.754l-2.79-1.526-1.526-2.79c-.351-.642-1.404-.642-1.755 0l-1.526 2.79-2.79 1.526a.999.999 0 0 0 0 1.754zm1.217-3.192c.167-.092.306-.23.397-.397l.789-1.443.789 1.443c.092.167.23.306.397.397l1.443.789-1.443.789c-.167.092-.306.23-.397.397l-.789 1.443-.789-1.443a1 1 0 0 0-.397-.397L46.251 12z"/>
</svg>
